<?xml version="1.0" encoding="UTF-8"?>
<svg id="Layer_1" data-name="Layer 1" xmlns="http://www.w3.org/2000/svg" version="1.1" xmlns:xlink="http://www.w3.org/1999/xlink" viewBox="0 0 702 509">
  <defs>
    <style>
      .cls-1 {
        fill: #e8286f;
      }

      .cls-1, .cls-2, .cls-3 {
        stroke-width: 0px;
      }

      .cls-4 {
        clip-path: url(#clippath-2);
      }

      .cls-2 {
        fill: #262867;
      }

      .cls-5 {
        clip-path: url(#clippath-6);
      }

      .cls-3 {
        fill: none;
      }

      .cls-6 {
        clip-path: url(#clippath-7);
      }

      .cls-7 {
        clip-path: url(#clippath-1);
      }

      .cls-8 {
        clip-path: url(#clippath-4);
      }

      .cls-9 {
        clip-path: url(#clippath);
      }

      .cls-10 {
        clip-path: url(#clippath-3);
      }

      .cls-11 {
        clip-path: url(#clippath-8);
      }

      .cls-12 {
        clip-path: url(#clippath-5);
      }
    </style>
    <clipPath id="clippath">
      <rect class="cls-3" x="-831" y="110" width="1480.17" height="660.02"/>
    </clipPath>
    <clipPath id="clippath-1">
      <rect class="cls-3" x="-831" y="110" width="1480.17" height="660.02"/>
    </clipPath>
    <clipPath id="clippath-2">
      <rect class="cls-3" x="-831" y="110" width="1480.17" height="660.02"/>
    </clipPath>
    <clipPath id="clippath-3">
      <rect class="cls-3" x="-831" y="110" width="1480.17" height="660.02"/>
    </clipPath>
    <clipPath id="clippath-4">
      <rect class="cls-3" x="-831" y="110" width="1480.17" height="660.02"/>
    </clipPath>
    <clipPath id="clippath-5">
      <rect class="cls-3" x="-831" y="110" width="1480.17" height="660.02"/>
    </clipPath>
    <clipPath id="clippath-6">
      <rect class="cls-3" x="-831" y="110" width="1480.17" height="660.02"/>
    </clipPath>
    <clipPath id="clippath-7">
      <rect class="cls-3" x="-831" y="110" width="1480.17" height="660.02"/>
    </clipPath>
    <clipPath id="clippath-8">
      <rect class="cls-3" x="-831" y="110" width="1480.17" height="660.02"/>
    </clipPath>
  </defs>
  <rect class="cls-2" x="179.61" y="358.5" width="3.45" height="22.02"/>
  <g class="cls-9">
    <path class="cls-2" d="M187.12,377.59h6.2v-11.63c0-3.05-.92-4.51-3.34-4.51h-2.06v-2.94h3.05c4.11,0,5.8,2.2,5.8,6.57v15.45h-9.65v-2.94Z"/>
  </g>
  <polygon class="cls-2" points="204.84 358.5 204.84 370.95 201.39 371.53 201.39 358.5 204.84 358.5"/>
  <polygon class="cls-2" points="226.88 358.5 226.88 358.87 218.44 380.52 214.8 380.52 214.8 380.38 222.33 361.44 208.27 361.44 208.27 354.84 211.72 354.84 211.72 358.5 226.88 358.5"/>
  <g class="cls-7">
    <path class="cls-2" d="M247.9,380.19v.33h-18.97v-2.94h13.32l-14.35-18.97v-.11h3.86l8.15,10.94c2.79-1.36,4.33-4.81,4.11-10.94h3.34c.22,7.34-1.84,11.52-5.72,13.28l6.27,8.4Z"/>
    <path class="cls-2" d="M272.41,380.38v.15h-3.85l-9.95-12.4c-2.9,1.61-4.33,4.95-4.15,12.4h-3.45c-.18-8.81,1.84-12.66,5.76-14.64l-5.8-7.23v-.15h3.85l9.95,12.37c2.9-1.62,4.29-4.96,4.15-12.37h3.45c.18,8.77-1.84,12.66-5.76,14.64l5.8,7.23Z"/>
  </g>
  <polygon class="cls-2" points="303.99 358.5 303.99 358.87 295.55 380.52 291.91 380.52 291.91 380.38 299.44 361.44 285.38 361.44 285.38 354.84 288.83 354.84 288.83 358.5 303.99 358.5"/>
  <rect class="cls-2" x="307.17" y="358.5" width="3.45" height="22.02"/>
  <g class="cls-4">
    <path class="cls-2" d="M332.41,380.52h-3.34v-11.23c0-5.58-2.79-8.3-7.34-8.3-2.53,0-4.66.77-6.75,1.87l-1.17-2.46c2.94-1.61,5.72-2.2,8.48-2.2,5.91,0,10.13,3.3,10.13,10.94v11.38Z"/>
    <path class="cls-2" d="M358.38,368.82c0,7.48-3.93,12.07-10.9,12.07s-11.08-4.59-11.08-12.07v-10.31h3.45v10.31c0,5.65,2.71,9.14,7.63,9.14s7.52-3.48,7.52-9.14c0-4.58-1.83-7.67-5.28-7.67-1.65,0-2.75.33-4.07.99l-.88-2.57c1.36-.77,3.16-1.36,5.36-1.36,4.92,0,8.26,3.6,8.26,10.61"/>
    <path class="cls-2" d="M359.66,377.59h6.2v-11.63c0-3.05-.92-4.51-3.34-4.51h-2.06v-2.94h3.05c4.11,0,5.8,2.2,5.8,6.57v15.45h-9.65v-2.94Z"/>
  </g>
  <rect class="cls-2" x="374.19" y="358.5" width="3.45" height="22.02"/>
  <g class="cls-10">
    <path class="cls-2" d="M386.21,386.91h-3.34v-18.68l3.34-.44v19.12ZM402.83,358.5v12.74c0,7.15-3.12,9.54-7.74,9.54-1.65,0-3.01-.18-4.44-.62l.4-2.86c1.14.33,2.46.55,3.59.55,3.34,0,4.85-1.72,4.85-6.93v-9.47h-16.88v-2.94h20.22Z"/>
    <path class="cls-2" d="M411.38,368.31v12.22h-3.45v-11.74l3.45-.48ZM417.14,358.5c7.19,0,10.5,3.45,10.5,11.01v11.01h-3.45v-11.01c0-5.61-2.16-8.07-7.05-8.07h-9.47v-2.94h9.47Z"/>
    <path class="cls-2" d="M445.94,371.13l-3.45.73v-13.36h3.45v12.63ZM456.77,358.5v9.98c0,7.71-4.77,12.48-12.55,12.48s-12.55-4.77-12.55-12.48v-9.98h3.45v10.06c0,5.8,3.52,9.47,9.1,9.47s9.1-3.67,9.1-9.47v-10.06h3.45Z"/>
    <path class="cls-2" d="M491.87,377.59v2.94h-21.58v-2.94h14.83v-8.77c0-4.62-1.98-7.82-6.68-7.82-2.71,0-5.1.88-7.41,2.13l-1.14-2.57c2.9-1.69,5.95-2.5,9.06-2.5,6.9,0,9.65,4.04,9.65,10.53v8.99h3.27Z"/>
  </g>
  <rect class="cls-2" x="494.62" y="358.5" width="3.45" height="22.02"/>
  <g class="cls-8">
    <path class="cls-2" d="M524.52,368.82c0,7.48-3.93,12.07-10.9,12.07s-11.08-4.59-11.08-12.07v-10.31h3.45v10.31c0,5.65,2.72,9.14,7.63,9.14s7.52-3.48,7.52-9.14c0-4.58-1.83-7.67-5.28-7.67-1.65,0-2.75.33-4.07.99l-.88-2.57c1.36-.77,3.16-1.36,5.36-1.36,4.92,0,8.26,3.6,8.26,10.61"/>
    <path class="cls-1" d="M317.35,250.55h-45.68v-80.82c0-43.1,16.16-59.73,58.56-59.73h46.61v35.14h-36.54c-17.81,0-22.95,7.97-22.95,28.81v76.6Z"/>
    <path class="cls-2" d="M375.86,203.77c-2.27.19-4.73.28-7.41.28h-43.61v45.68h47.82c38.51,0,55.85-12.97,59.12-45.96h-55.92Z"/>
  </g>
  <rect class="cls-2" x="386.59" y="110" width="45.68" height="85.03"/>
  <rect class="cls-2" x="53.21" y="279.48" width="13.58" height="59.92"/>
  <polygon class="cls-2" points="88.56 279.48 88.56 306.56 74.98 308.64 74.98 279.48 88.56 279.48"/>
  <polygon class="cls-2" points="109.45 279.48 109.45 306.56 95.87 308.64 95.87 279.48 109.45 279.48"/>
  <g class="cls-12">
    <path class="cls-2" d="M165.73,301.93c0,16.7-8.71,26.28-24.45,26.28s-25.41-9.58-25.41-26.28v-22.45h13.58v22.45c0,9.43,4.32,14.7,11.82,14.7s11.18-5.27,11.18-14.7c0-6.71-2-11.5-7.19-11.5-3.04,0-4.23.64-6.31,1.52l-3.35-10.15c3.04-1.68,6.71-2.95,11.34-2.95,10.78,0,18.78,6.71,18.78,23.09"/>
    <path class="cls-2" d="M207.23,305.85l-13.58,2.71v-29.08h13.58v26.37ZM230.07,279.48v20.21c0,18.61-10.62,28.76-29.64,28.76s-29.64-10.15-29.64-28.76v-20.21h13.58v20.61c0,10.95,5.75,16.78,16.06,16.78s16.06-5.83,16.06-16.78v-20.61h13.58Z"/>
    <path class="cls-2" d="M234.34,315.83h9.35v-18.69c0-4.56-.88-6.07-4.56-6.07h-3.51v-11.59h7.75c10.06,0,13.9,4.39,13.9,13.9v34.03h-22.93v-11.58Z"/>
  </g>
  <polygon class="cls-2" points="278.64 279.48 278.64 306.56 265.06 308.64 265.06 279.48 278.64 279.48"/>
  <g class="cls-5">
    <path class="cls-2" d="M330.93,315.83v11.58h-45.38v-11.58h26.36v-12.22c0-8.39-3.92-13.5-10.95-13.5-4.71,0-9.03,1.92-12.46,3.83l-4.47-10.07c6.07-3.59,12.78-5.35,19.17-5.35,15.5,0,22.29,8.31,22.29,24.13v13.18h5.43Z"/>
  </g>
  <rect class="cls-2" x="336.55" y="279.48" width="13.58" height="47.93"/>
  <g class="cls-6">
    <path class="cls-2" d="M396.43,327.41h-13.1v-24.21c0-8.47-4.15-13.34-11.5-13.34-4.87,0-9.19,1.92-12.94,3.83l-4.47-9.67c7.03-3.91,13.58-5.19,19.73-5.19,12.62,0,22.29,7.19,22.29,23.81v24.77Z"/>
  </g>
  <polygon class="cls-2" points="466.65 279.48 466.65 280.68 450.03 327.41 435.57 327.41 435.57 326.94 448.67 291.06 424.39 291.06 424.39 271.49 437.97 271.49 437.97 279.48 466.65 279.48"/>
  <g class="cls-11">
    <path class="cls-2" d="M518.37,326.85v.56h-15.02l-16.14-21.89c-3.76,3.28-5.43,9.75-5.03,21.89h-13.58c-.4-17.98,3.59-26.6,11.9-31.08l-11.98-16.3v-.56h15.02l16.14,21.89c3.76-3.28,5.43-9.75,5.03-21.89h13.58c.4,17.98-3.59,26.6-11.9,31.08l11.98,16.3Z"/>
    <path class="cls-2" d="M563.7,327.41h-13.1v-24.21c0-8.47-4.16-13.34-11.5-13.34-4.87,0-9.19,1.92-12.94,3.83l-4.47-9.67c7.03-3.91,13.58-5.19,19.73-5.19,12.62,0,22.29,7.19,22.29,23.81v24.77Z"/>
    <path class="cls-2" d="M606.32,305.85l-13.58,2.71v-29.08h13.58v26.37ZM629.17,279.48v20.21c0,18.61-10.63,28.76-29.64,28.76s-29.64-10.15-29.64-28.76v-20.21h13.58v20.61c0,10.95,5.75,16.78,16.05,16.78s16.06-5.83,16.06-16.78v-20.61h13.58Z"/>
  </g>
  <polygon class="cls-2" points="635.59 279.48 635.59 308.64 649.17 306.56 649.17 279.48 635.59 279.48"/>
</svg>