<?xml version="1.0" encoding="UTF-8"?>
<svg id="Layer_1" data-name="Layer 1" xmlns="http://www.w3.org/2000/svg" version="1.1" xmlns:xlink="http://www.w3.org/1999/xlink" viewBox="0 0 938 520">
  <defs>
    <style>
      .cls-1 {
        clip-path: url(#clippath-11);
      }

      .cls-2 {
        clip-path: url(#clippath-16);
      }

      .cls-3 {
        fill: #e8286f;
      }

      .cls-3, .cls-4, .cls-5 {
        stroke-width: 0px;
      }

      .cls-6 {
        clip-path: url(#clippath-13);
      }

      .cls-4 {
        fill: #262867;
      }

      .cls-7 {
        clip-path: url(#clippath-15);
      }

      .cls-5 {
        fill: none;
      }

      .cls-8 {
        clip-path: url(#clippath-12);
      }

      .cls-9 {
        clip-path: url(#clippath-9);
      }

      .cls-10 {
        clip-path: url(#clippath-14);
      }

      .cls-11 {
        clip-path: url(#clippath-17);
      }

      .cls-12 {
        clip-path: url(#clippath-10);
      }
    </style>
    <clipPath id="clippath-9">
      <rect class="cls-5" x="151" y="121" width="1480.17" height="660.02"/>
    </clipPath>
    <clipPath id="clippath-10">
      <rect class="cls-5" x="151" y="121" width="1480.17" height="660.02"/>
    </clipPath>
    <clipPath id="clippath-11">
      <rect class="cls-5" x="151" y="121" width="1480.17" height="660.02"/>
    </clipPath>
    <clipPath id="clippath-12">
      <rect class="cls-5" x="151" y="121" width="1480.17" height="660.02"/>
    </clipPath>
    <clipPath id="clippath-13">
      <rect class="cls-5" x="151" y="121" width="1480.17" height="660.02"/>
    </clipPath>
    <clipPath id="clippath-14">
      <rect class="cls-5" x="151" y="121" width="1480.17" height="660.02"/>
    </clipPath>
    <clipPath id="clippath-15">
      <rect class="cls-5" x="151" y="121" width="1480.17" height="660.02"/>
    </clipPath>
    <clipPath id="clippath-16">
      <rect class="cls-5" x="151" y="121" width="1480.17" height="660.02"/>
    </clipPath>
    <clipPath id="clippath-17">
      <rect class="cls-5" x="151" y="121" width="1480.17" height="660.02"/>
    </clipPath>
  </defs>
  <rect class="cls-4" x="253.53" y="356.35" width="2.92" height="18.66"/>
  <g class="cls-9">
    <path class="cls-4" d="M259.89,372.52h5.25v-9.85c0-2.58-.78-3.82-2.83-3.82h-1.74v-2.49h2.58c3.48,0,4.91,1.87,4.91,5.56v13.09h-8.18v-2.49Z"/>
  </g>
  <polygon class="cls-4" points="274.9 356.35 274.9 366.89 271.98 367.39 271.98 356.35 274.9 356.35"/>
  <polygon class="cls-4" points="293.57 356.35 293.57 356.66 286.42 375.01 283.34 375.01 283.34 374.88 289.72 358.84 277.81 358.84 277.81 353.24 280.74 353.24 280.74 356.35 293.57 356.35"/>
  <g class="cls-12">
    <path class="cls-4" d="M311.38,374.73v.28h-16.07v-2.49h11.29l-12.16-16.07v-.09h3.27l6.9,9.27c2.36-1.15,3.67-4.07,3.48-9.27h2.83c.19,6.22-1.55,9.76-4.85,11.25l5.32,7.12Z"/>
    <path class="cls-4" d="M332.15,374.88v.13h-3.27l-8.42-10.51c-2.46,1.37-3.67,4.2-3.51,10.51h-2.92c-.16-7.46,1.55-10.73,4.88-12.41l-4.91-6.13v-.13h3.27l8.42,10.48c2.46-1.37,3.64-4.2,3.51-10.48h2.92c.15,7.43-1.55,10.73-4.88,12.41l4.91,6.13Z"/>
  </g>
  <polygon class="cls-4" points="358.9 356.35 358.9 356.66 351.75 375.01 348.67 375.01 348.67 374.88 355.05 358.84 343.14 358.84 343.14 353.24 346.06 353.24 346.06 356.35 358.9 356.35"/>
  <rect class="cls-4" x="361.6" y="356.35" width="2.92" height="18.66"/>
  <g class="cls-1">
    <path class="cls-4" d="M382.98,375.01h-2.83v-9.51c0-4.73-2.36-7.03-6.22-7.03-2.15,0-3.95.65-5.72,1.59l-1-2.08c2.49-1.37,4.85-1.87,7.18-1.87,5.01,0,8.58,2.8,8.58,9.27v9.64Z"/>
    <path class="cls-4" d="M404.99,365.09c0,6.34-3.33,10.23-9.23,10.23s-9.39-3.89-9.39-10.23v-8.74h2.92v8.74c0,4.79,2.3,7.74,6.47,7.74s6.37-2.95,6.37-7.74c0-3.88-1.55-6.5-4.48-6.5-1.4,0-2.33.28-3.45.84l-.75-2.18c1.15-.65,2.68-1.15,4.54-1.15,4.17,0,7,3.05,7,8.98"/>
    <path class="cls-4" d="M406.07,372.52h5.25v-9.85c0-2.58-.78-3.82-2.83-3.82h-1.74v-2.49h2.58c3.48,0,4.91,1.87,4.91,5.56v13.09h-8.18v-2.49Z"/>
  </g>
  <rect class="cls-4" x="418.38" y="356.35" width="2.92" height="18.66"/>
  <g class="cls-8">
    <path class="cls-4" d="M428.56,380.42h-2.83v-15.83l2.83-.37v16.2ZM442.65,356.35v10.79c0,6.06-2.64,8.08-6.56,8.08-1.4,0-2.55-.16-3.76-.53l.34-2.42c.96.28,2.08.46,3.05.46,2.83,0,4.1-1.46,4.1-5.88v-8.02h-14.3v-2.49h17.13Z"/>
    <path class="cls-4" d="M449.89,364.66v10.35h-2.92v-9.95l2.92-.4ZM454.77,356.35c6.09,0,8.89,2.92,8.89,9.33v9.33h-2.92v-9.33c0-4.76-1.83-6.84-5.97-6.84h-8.02v-2.49h8.02Z"/>
    <path class="cls-4" d="M479.17,367.05l-2.92.62v-11.32h2.92v10.7ZM488.35,356.35v8.46c0,6.53-4.04,10.57-10.63,10.57s-10.63-4.04-10.63-10.57v-8.46h2.92v8.52c0,4.91,2.99,8.02,7.71,8.02s7.71-3.11,7.71-8.02v-8.52h2.92Z"/>
    <path class="cls-4" d="M518.09,372.52v2.49h-18.28v-2.49h12.56v-7.43c0-3.92-1.68-6.62-5.66-6.62-2.3,0-4.32.75-6.28,1.81l-.96-2.18c2.46-1.43,5.04-2.12,7.68-2.12,5.84,0,8.17,3.42,8.17,8.92v7.62h2.77Z"/>
  </g>
  <rect class="cls-4" x="520.42" y="356.35" width="2.92" height="18.66"/>
  <g class="cls-6">
    <path class="cls-4" d="M545.75,365.09c0,6.34-3.33,10.23-9.23,10.23s-9.39-3.89-9.39-10.23v-8.74h2.92v8.74c0,4.79,2.3,7.74,6.47,7.74s6.37-2.95,6.37-7.74c0-3.88-1.55-6.5-4.48-6.5-1.4,0-2.33.28-3.45.84l-.75-2.18c1.15-.65,2.68-1.15,4.54-1.15,4.17,0,7,3.05,7,8.98"/>
    <path class="cls-3" d="M639.52,377.66h-65.85v-116.49c0-62.13,23.3-86.11,84.42-86.11h67.19v50.65h-52.67c-25.67,0-33.09,11.48-33.09,41.53v110.41Z"/>
    <path class="cls-4" d="M723.87,310.23c-3.27.27-6.81.41-10.69.41h-62.86v65.84h68.94c55.51,0,80.5-18.69,85.21-66.25h-80.6Z"/>
  </g>
  <rect class="cls-4" x="739.34" y="175.07" width="65.85" height="122.57"/>
  <rect class="cls-4" x="151" y="276.84" width="15.65" height="69.06"/>
  <polygon class="cls-4" points="191.74 276.84 191.74 308.05 176.09 310.45 176.09 276.84 191.74 276.84"/>
  <polygon class="cls-4" points="215.82 276.84 215.82 308.05 200.17 310.45 200.17 276.84 215.82 276.84"/>
  <g class="cls-10">
    <path class="cls-4" d="M280.69,302.72c0,19.24-10.04,30.29-28.18,30.29s-29.28-11.05-29.28-30.29v-25.88h15.65v25.88c0,10.86,4.97,16.94,13.63,16.94s12.89-6.08,12.89-16.94c0-7.74-2.3-13.26-8.28-13.26-3.5,0-4.88.73-7.28,1.75l-3.87-11.69c3.5-1.93,7.74-3.41,13.08-3.41,12.43,0,21.64,7.74,21.64,26.61"/>
    <path class="cls-4" d="M328.51,307.23l-15.65,3.13v-33.52h15.65v30.39ZM354.85,276.84v23.3c0,21.45-12.24,33.15-34.16,33.15s-34.16-11.7-34.16-33.15v-23.3h15.65v23.76c0,12.62,6.63,19.34,18.51,19.34s18.51-6.72,18.51-19.34v-23.76h15.65Z"/>
    <path class="cls-4" d="M359.77,318.74h10.77v-21.54c0-5.25-1.01-7-5.25-7h-4.05v-13.35h8.93c11.6,0,16.02,5.07,16.02,16.02v39.22h-26.42v-13.35Z"/>
  </g>
  <polygon class="cls-4" points="410.82 276.84 410.82 308.05 395.17 310.45 395.17 276.84 410.82 276.84"/>
  <g class="cls-7">
    <path class="cls-4" d="M471.09,318.74v13.35h-52.3v-13.35h30.38v-14.09c0-9.67-4.51-15.56-12.62-15.56-5.43,0-10.41,2.21-14.37,4.42l-5.15-11.6c7-4.14,14.73-6.17,22.1-6.17,17.86,0,25.69,9.57,25.69,27.81v15.19h6.26Z"/>
  </g>
  <rect class="cls-4" x="477.57" y="276.84" width="15.66" height="55.25"/>
  <g class="cls-2">
    <path class="cls-4" d="M546.58,332.09h-15.1v-27.9c0-9.76-4.79-15.38-13.26-15.38-5.62,0-10.59,2.21-14.92,4.42l-5.15-11.14c8.1-4.51,15.65-5.99,22.74-5.99,14.55,0,25.69,8.29,25.69,27.44v28.55Z"/>
  </g>
  <polygon class="cls-4" points="323.59 200.58 323.59 201.97 304.44 255.83 287.78 255.83 287.78 255.28 302.88 213.94 274.89 213.94 274.89 191.38 290.54 191.38 290.54 200.58 323.59 200.58"/>
  <g class="cls-11">
    <path class="cls-4" d="M383.21,255.19v.65h-17.31l-18.6-25.23c-4.33,3.77-6.26,11.23-5.8,25.23h-15.65c-.46-20.72,4.14-30.66,13.72-35.82l-13.81-18.78v-.65h17.31l18.6,25.23c4.33-3.77,6.26-11.23,5.8-25.23h15.66c.46,20.72-4.15,30.66-13.72,35.82l13.81,18.78Z"/>
    <path class="cls-4" d="M435.46,255.83h-15.1v-27.9c0-9.76-4.79-15.38-13.26-15.38-5.61,0-10.59,2.21-14.91,4.42l-5.16-11.14c8.11-4.51,15.66-5.99,22.75-5.99,14.55,0,25.69,8.29,25.69,27.44v28.55Z"/>
    <path class="cls-4" d="M484.57,230.97l-15.65,3.13v-33.52h15.65v30.39ZM510.91,200.58v23.3c0,21.45-12.25,33.15-34.16,33.15s-34.16-11.69-34.16-33.15v-23.3h15.66v23.75c0,12.62,6.63,19.34,18.5,19.34s18.51-6.72,18.51-19.34v-23.75h15.66Z"/>
  </g>
  <polygon class="cls-4" points="533.97 200.58 533.97 231.8 518.31 234.19 518.31 200.58 533.97 200.58"/>
</svg>