<?xml version="1.0" encoding="UTF-8"?>
<svg id="Layer_1" data-name="Layer 1" xmlns="http://www.w3.org/2000/svg" version="1.1" xmlns:xlink="http://www.w3.org/1999/xlink" viewBox="0 0 885 260">
  <defs>
    <style>
      .cls-1 {
        fill: #e8286f;
      }

      .cls-1, .cls-2, .cls-3, .cls-4 {
        stroke-width: 0px;
      }

      .cls-5 {
        clip-path: url(#clippath-25);
      }

      .cls-2 {
        fill: #262867;
      }

      .cls-6 {
        clip-path: url(#clippath-26);
      }

      .cls-3 {
        fill: none;
      }

      .cls-7 {
        clip-path: url(#clippath-27);
      }

      .cls-8 {
        clip-path: url(#clippath-24);
      }

      .cls-4 {
        fill: #fff;
      }

      .cls-9 {
        clip-path: url(#clippath-23);
      }
    </style>
    <clipPath id="clippath-23">
      <rect class="cls-3" x="151" y="-439" width="1480.17" height="660.02"/>
    </clipPath>
    <clipPath id="clippath-24">
      <rect class="cls-3" x="151" y="-439" width="1480.17" height="660.02"/>
    </clipPath>
    <clipPath id="clippath-25">
      <rect class="cls-3" x="151" y="-439" width="1480.17" height="660.02"/>
    </clipPath>
    <clipPath id="clippath-26">
      <rect class="cls-3" x="151" y="-439" width="1480.17" height="660.02"/>
    </clipPath>
    <clipPath id="clippath-27">
      <rect class="cls-3" x="151" y="-439" width="1480.17" height="660.02"/>
    </clipPath>
  </defs>
  <rect class="cls-1" x="0" width="885" height="260"/>
  <g class="cls-9">
    <path class="cls-4" d="M649.81,211.01h-52.27v-92.47c0-49.32,18.49-68.35,67.01-68.35h53.33v40.21h-41.81c-20.37,0-26.26,9.11-26.26,32.97v87.64Z"/>
    <path class="cls-2" d="M716.77,157.48c-2.6.21-5.41.32-8.48.32h-49.9v52.27h54.72c44.07,0,63.9-14.84,67.64-52.59h-63.98Z"/>
  </g>
  <rect class="cls-2" x="729.05" y="50.19" width="52.27" height="97.29"/>
  <rect class="cls-2" x="174.87" y="151.96" width="15.65" height="69.06"/>
  <polygon class="cls-2" points="215.61 151.96 215.61 183.18 199.96 185.57 199.96 151.96 215.61 151.96"/>
  <polygon class="cls-2" points="239.69 151.96 239.69 183.18 224.04 185.57 224.04 151.96 239.69 151.96"/>
  <g class="cls-8">
    <path class="cls-2" d="M304.56,177.84c0,19.25-10.04,30.29-28.18,30.29s-29.28-11.05-29.28-30.29v-25.88h15.65v25.88c0,10.86,4.97,16.94,13.63,16.94s12.89-6.08,12.89-16.94c0-7.74-2.3-13.26-8.28-13.26-3.5,0-4.88.73-7.28,1.75l-3.87-11.69c3.5-1.93,7.74-3.41,13.08-3.41,12.43,0,21.64,7.74,21.64,26.61"/>
    <path class="cls-2" d="M352.38,182.35l-15.65,3.13v-33.52h15.65v30.39ZM378.72,151.96v23.3c0,21.45-12.24,33.15-34.16,33.15s-34.16-11.7-34.16-33.15v-23.3h15.65v23.76c0,12.62,6.63,19.34,18.51,19.34s18.51-6.72,18.51-19.34v-23.76h15.65Z"/>
    <path class="cls-2" d="M383.64,193.86h10.77v-21.54c0-5.25-1.01-7-5.25-7h-4.05v-13.35h8.93c11.6,0,16.02,5.06,16.02,16.02v39.22h-26.42v-13.35Z"/>
  </g>
  <polygon class="cls-2" points="434.69 151.96 434.69 183.18 419.04 185.57 419.04 151.96 434.69 151.96"/>
  <g class="cls-5">
    <path class="cls-2" d="M494.96,193.86v13.35h-52.3v-13.35h30.38v-14.09c0-9.67-4.51-15.56-12.62-15.56-5.43,0-10.4,2.21-14.36,4.42l-5.15-11.6c7-4.14,14.73-6.17,22.1-6.17,17.86,0,25.69,9.57,25.69,27.81v15.19h6.26Z"/>
  </g>
  <rect class="cls-2" x="501.44" y="151.96" width="15.66" height="55.25"/>
  <g class="cls-6">
    <path class="cls-2" d="M570.45,207.21h-15.1v-27.9c0-9.76-4.79-15.38-13.26-15.38-5.62,0-10.59,2.21-14.92,4.42l-5.15-11.14c8.1-4.51,15.65-5.99,22.74-5.99,14.55,0,25.69,8.29,25.69,27.44v28.55Z"/>
  </g>
  <polygon class="cls-2" points="347.46 75.71 347.46 77.09 328.31 130.95 311.65 130.95 311.65 130.4 326.75 89.06 298.76 89.06 298.76 66.5 314.41 66.5 314.41 75.71 347.46 75.71"/>
  <g class="cls-7">
    <path class="cls-2" d="M407.08,130.31v.65h-17.31l-18.6-25.23c-4.33,3.77-6.26,11.23-5.8,25.23h-15.65c-.46-20.72,4.14-30.66,13.72-35.82l-13.81-18.78v-.65h17.31l18.6,25.23c4.33-3.77,6.26-11.23,5.8-25.23h15.66c.46,20.72-4.15,30.66-13.72,35.82l13.81,18.78Z"/>
    <path class="cls-2" d="M459.33,130.95h-15.1v-27.9c0-9.76-4.79-15.38-13.26-15.38-5.61,0-10.59,2.21-14.91,4.42l-5.16-11.14c8.1-4.51,15.65-5.99,22.75-5.99,14.55,0,25.69,8.29,25.69,27.44v28.55Z"/>
    <path class="cls-2" d="M508.45,106.09l-15.65,3.13v-33.52h15.65v30.39ZM534.78,75.71v23.3c0,21.45-12.25,33.15-34.16,33.15s-34.16-11.69-34.16-33.15v-23.3h15.66v23.76c0,12.62,6.63,19.34,18.5,19.34s18.51-6.72,18.51-19.34v-23.76h15.66Z"/>
  </g>
  <polygon class="cls-2" points="557.84 75.71 557.84 106.92 542.18 109.32 542.18 75.71 557.84 75.71"/>
</svg>